P1
69 10
010100110010010011011110101000110101010011101010000100010011100101010
010100110010010011011110101000110101010011101010000100010011100101010
010100110010010011011110101000110101010011101010000100010011100101010
010100110010010011011110101000110101010011101010000100010011100101010
010100110010010011011110101000110101010011101010000100010011100101010
010100110010010011011110101000110101010011101010000100010011100101010
010100110010010011011110101000110101010011101010000100010011100101010
010100110010010011011110101000110101010011101010000100010011100101010
010100110010010011011110101000110101010011101010000100010011100101010
010100110010010011011110101000110101010011101010000100010011100101010