P1
69 10
010101110110110111000101101000110101010011101010000110011010100001010
010101110110110111000101101000110101010011101010000110011010100001010
010101110110110111000101101000110101010011101010000110011010100001010
010101110110110111000101101000110101010011101010000110011010100001010
010101110110110111000101101000110101010011101010000110011010100001010
010101110110110111000101101000110101010011101010000110011010100001010
010101110110110111000101101000110101010011101010000110011010100001010
010101110110110111000101101000110101010011101010000110011010100001010
010101110110110111000101101000110101010011101010000110011010100001010
010101110110110111000101101000110101010011101010000110011010100001010