P1
69 1
010100110010010011011110101000110101010011101010000100100011101001010