P1
146 25
00000011001100001111000011000011000011110011111111001100110000001111001100110011000011111100110011000000001100000011000011000011000000110011000000
00000011001100001111000011000011000011110011111111001100110000001111001100110011000011111100110011000000001100000011000011000011000000110011000000
00000011001100001111000011000011000011110011111111001100110000001111001100110011000011111100110011000000001100000011000011000011000000110011000000
00000011001100001111000011000011000011110011111111001100110000001111001100110011000011111100110011000000001100000011000011000011000000110011000000
00000011001100001111000011000011000011110011111111001100110000001111001100110011000011111100110011000000001100000011000011000011000000110011000000
00000011001100001111000011000011000011110011111111001100110000001111001100110011000011111100110011000000001100000011000011000011000000110011000000
00000011001100001111000011000011000011110011111111001100110000001111001100110011000011111100110011000000001100000011000011000011000000110011000000
00000011001100001111000011000011000011110011111111001100110000001111001100110011000011111100110011000000001100000011000011000011000000110011000000
00000011001100001111000011000011000011110011111111001100110000001111001100110011000011111100110011000000001100000011000011000011000000110011000000
00000011001100001111000011000011000011110011111111001100110000001111001100110011000011111100110011000000001100000011000011000011000000110011000000
00000011001100001111000011000011000011110011111111001100110000001111001100110011000011111100110011000000001100000011000011000011000000110011000000
00000011001100001111000011000011000011110011111111001100110000001111001100110011000011111100110011000000001100000011000011000011000000110011000000
00000011001100001111000011000011000011110011111111001100110000001111001100110011000011111100110011000000001100000011000011000011000000110011000000
00000011001100001111000011000011000011110011111111001100110000001111001100110011000011111100110011000000001100000011000011000011000000110011000000
00000011001100001111000011000011000011110011111111001100110000001111001100110011000011111100110011000000001100000011000011000011000000110011000000
00000011001100001111000011000011000011110011111111001100110000001111001100110011000011111100110011000000001100000011000011000011000000110011000000
00000011001100001111000011000011000011110011111111001100110000001111001100110011000011111100110011000000001100000011000011000011000000110011000000
00000011001100001111000011000011000011110011111111001100110000001111001100110011000011111100110011000000001100000011000011000011000000110011000000
00000011001100001111000011000011000011110011111111001100110000001111001100110011000011111100110011000000001100000011000011000011000000110011000000
00000011001100001111000011000011000011110011111111001100110000001111001100110011000011111100110011000000001100000011000011000011000000110011000000
00000011001100001111000011000011000011110011111111001100110000001111001100110011000011111100110011000000001100000011000011000011000000110011000000
00000011001100001111000011000011000011110011111111001100110000001111001100110011000011111100110011000000001100000011000011000011000000110011000000
00000011001100001111000011000011000011110011111111001100110000001111001100110011000011111100110011000000001100000011000011000011000000110011000000
00000011001100001111000011000011000011110011111111001100110000001111001100110011000011111100110011000000001100000011000011000011000000110011000000
00000011001100001111000011000011000011110011111111001100110000001111001100110011000011111100110011000000001100000011000011000011000000110011000000